<svg width="16" height="16" viewBox="0 0 16 16" fill="none" xmlns="http://www.w3.org/2000/svg">
<path d="M7.99216 10.7481C7.82555 10.7485 7.6641 10.6846 7.53581 10.5675L3.25759 6.64098C3.11197 6.50768 3.0204 6.31614 3.00302 6.10848C2.98563 5.90082 3.04386 5.69407 3.16489 5.53369C3.28592 5.37332 3.45984 5.27247 3.64839 5.25332C3.83693 5.23418 4.02466 5.29831 4.17027 5.4316L7.99216 8.94979L11.814 5.55725C11.887 5.49202 11.9709 5.44331 12.061 5.41391C12.1511 5.38452 12.2455 5.37502 12.339 5.38597C12.4324 5.39691 12.5229 5.42809 12.6054 5.4777C12.6878 5.52731 12.7606 5.59438 12.8194 5.67505C12.8847 5.7558 12.9342 5.85053 12.9647 5.9533C12.9952 6.05608 13.0061 6.16469 12.9967 6.27232C12.9874 6.37996 12.9579 6.48431 12.9102 6.57882C12.8625 6.67334 12.7976 6.75599 12.7196 6.8216L8.44137 10.6146C8.3094 10.7132 8.15124 10.7602 7.99216 10.7481Z" fill="#202020"/>
</svg>
